<svg width="53" height="93" viewBox="0 0 53 93" fill="none" xmlns="http://www.w3.org/2000/svg">
<g clip-path="url(#clip0_197_563)">
<path d="M38.97 0H14.04C6.28592 0 0 6.28592 0 14.04V78.37C0 86.1241 6.28592 92.41 14.04 92.41H38.97C46.7241 92.41 53.01 86.1241 53.01 78.37V14.04C53.01 6.28592 46.7241 0 38.97 0Z" fill="#16284D"/>
<path d="M46.73 14.1299H6.29004V63.1199H46.73V14.1299Z" fill="white"/>
<path d="M33.4898 4.32007H19.5098C18.4384 4.32007 17.5698 5.18864 17.5698 6.26007V7.62007C17.5698 8.6915 18.4384 9.56007 19.5098 9.56007H33.4898C34.5613 9.56007 35.4298 8.6915 35.4298 7.62007V6.26007C35.4298 5.18864 34.5613 4.32007 33.4898 4.32007Z" fill="white"/>
<path d="M26.4999 85.2601C29.7308 85.2601 32.3499 82.6409 32.3499 79.4101C32.3499 76.1792 29.7308 73.5601 26.4999 73.5601C23.269 73.5601 20.6499 76.1792 20.6499 79.4101C20.6499 82.6409 23.269 85.2601 26.4999 85.2601Z" fill="white"/>
</g>
<defs>
<clipPath id="clip0_197_563">
<rect width="53.01" height="92.41" fill="white"/>
</clipPath>
</defs>
</svg>
