<svg width="111" height="84" viewBox="0 0 111 84" fill="none" xmlns="http://www.w3.org/2000/svg">
<g clip-path="url(#clip0_197_581)">
<path d="M98.1228 4.49683H12.8768C8.24692 4.49683 4.49365 8.25252 4.49365 12.8854V71.1033C4.49365 75.7362 8.24692 79.4919 12.8768 79.4919H98.1228C102.753 79.4919 106.506 75.7362 106.506 71.1033V12.8854C106.506 8.25252 102.753 4.49683 98.1228 4.49683Z" fill="#16284D"/>
<path d="M98.1228 4.49683H12.8768C8.24692 4.49683 4.49365 8.25252 4.49365 12.8854V71.1033C4.49365 75.7362 8.24692 79.4919 12.8768 79.4919H98.1228C102.753 79.4919 106.506 75.7362 106.506 71.1033V12.8854C106.506 8.25252 102.753 4.49683 98.1228 4.49683Z" stroke="#16284D" stroke-width="7.89" stroke-miterlimit="10"/>
<path d="M101.647 10.5571H9.35254V73.1234H101.647V10.5571Z" fill="white"/>
<path d="M54.3823 61.231C65.5823 61.231 74.6616 52.1458 74.6616 40.9386C74.6616 29.7315 65.5823 20.6462 54.3823 20.6462C43.1824 20.6462 34.103 29.7315 34.103 40.9386C34.103 52.1458 43.1824 61.231 54.3823 61.231Z" fill="#16284D"/>
<path d="M65.8565 41.1555L47.904 28.7039L47.4478 52.9223L65.8565 41.1555Z" fill="white"/>
</g>
<defs>
<clipPath id="clip0_197_581">
<rect width="111" height="84" fill="white"/>
</clipPath>
</defs>
</svg>
