<svg width="94" height="106" viewBox="0 0 94 106" fill="none" xmlns="http://www.w3.org/2000/svg">
<g clip-path="url(#clip0_197_589)">
<path d="M81.4798 19.77H12.2598C7.85255 19.77 4.27979 23.3428 4.27979 27.75V93.15C4.27979 97.5573 7.85255 101.13 12.2598 101.13H81.4798C85.887 101.13 89.4598 97.5573 89.4598 93.15V27.75C89.4598 23.3428 85.887 19.77 81.4798 19.77Z" fill="#16284D"/>
<path d="M81.4798 19.77H12.2598C7.85255 19.77 4.27979 23.3428 4.27979 27.75V93.15C4.27979 97.5573 7.85255 101.13 12.2598 101.13H81.4798C85.887 101.13 89.4598 97.5573 89.4598 93.15V27.75C89.4598 23.3428 85.887 19.77 81.4798 19.77Z" stroke="#16284D" stroke-width="8.56" stroke-miterlimit="10"/>
<path d="M85.4198 41.5801H8.33984V93.7901H85.4198V41.5801Z" fill="white"/>
<path d="M33.0298 67.8399L43.1298 78.3599L60.5098 50.9199" stroke="#16284D" stroke-width="8.77" stroke-miterlimit="10" stroke-linecap="round"/>
<path d="M25.7699 3.27002H23.9199C20.065 3.27002 16.9399 6.39507 16.9399 10.25V22.32C16.9399 26.175 20.065 29.3 23.9199 29.3H25.7699C29.6249 29.3 32.7499 26.175 32.7499 22.32V10.25C32.7499 6.39507 29.6249 3.27002 25.7699 3.27002Z" fill="#16284D"/>
<path d="M25.7699 6.55C27.8099 6.55 29.4799 8.22 29.4799 10.26V22.33C29.4799 24.37 27.8099 26.04 25.7699 26.04H23.9299C21.8899 26.04 20.2199 24.37 20.2199 22.33V10.26C20.2199 8.22 21.8899 6.55 23.9299 6.55H25.7699ZM25.7699 0H23.9299C18.2699 0 13.6699 4.6 13.6699 10.26V22.33C13.6699 27.99 18.2699 32.59 23.9299 32.59H25.7699C31.4299 32.59 36.0299 27.99 36.0299 22.33V10.26C36.0299 4.6 31.4299 0 25.7699 0Z" fill="white"/>
<path d="M71.08 3.27002H69.23C65.3751 3.27002 62.25 6.39507 62.25 10.25V22.32C62.25 26.175 65.3751 29.3 69.23 29.3H71.08C74.9349 29.3 78.06 26.175 78.06 22.32V10.25C78.06 6.39507 74.9349 3.27002 71.08 3.27002Z" fill="#16284D"/>
<path d="M71.08 6.55C73.12 6.55 74.79 8.22 74.79 10.26V22.33C74.79 24.37 73.12 26.04 71.08 26.04H69.24C67.2 26.04 65.53 24.37 65.53 22.33V10.26C65.53 8.22 67.2 6.55 69.24 6.55H71.08ZM71.08 0H69.24C63.58 0 58.98 4.6 58.98 10.26V22.33C58.98 27.99 63.58 32.59 69.24 32.59H71.08C76.74 32.59 81.34 27.99 81.34 22.33V10.26C81.34 4.6 76.74 0 71.08 0Z" fill="white"/>
</g>
<defs>
<clipPath id="clip0_197_589">
<rect width="93.75" height="105.42" fill="white"/>
</clipPath>
</defs>
</svg>
