<svg width="83" height="95" viewBox="0 0 83 95" fill="none" xmlns="http://www.w3.org/2000/svg">
<g clip-path="url(#clip0_197_572)">
<path d="M18.35 66.38C18.35 60.76 19.05 56.29 20.44 52.95C21.83 49.61 24.59 45.95 28.7 41.96C32.81 37.97 35.42 35.13 36.51 33.44C38.2 30.87 39.04 28.09 39.04 25.1C39.04 21.14 38.06 18.12 36.1 16.03C34.14 13.95 31.26 12.9 27.46 12.9C23.66 12.9 20.91 13.92 18.7 15.96C16.49 18 15.38 20.76 15.38 24.25H0C0.08 16.78 2.63 10.86 7.63 6.51C12.63 2.18 19.24 0 27.46 0C35.68 0 42.55 2.15 47.3 6.46C52.05 10.77 54.42 16.78 54.42 24.51C54.42 31.39 51.21 38.17 44.8 44.84L37.02 52.5C34.24 55.67 32.8 60.29 32.72 66.37H18.36L18.35 66.38ZM17.27 86.03C17.27 83.55 18.05 81.54 19.61 80.01C21.17 78.48 23.28 77.71 25.94 77.71C28.6 77.71 30.77 78.5 32.33 80.07C33.89 81.64 34.67 83.63 34.67 86.03C34.67 88.43 33.91 90.27 32.39 91.83C30.87 93.39 28.72 94.16 25.94 94.16C23.16 94.16 21.01 93.38 19.52 91.83C18.02 90.28 17.27 88.34 17.27 86.03Z" fill="#16284D"/>
<path d="M65.3999 86.16C65.3999 83.77 66.1799 81.78 67.7399 80.2C69.2999 78.62 71.4299 77.84 74.1299 77.84C76.8299 77.84 78.9599 78.63 80.5199 80.2C82.0799 81.78 82.8599 83.76 82.8599 86.16C82.8599 88.56 82.0999 90.4 80.5799 91.96C79.0599 93.51 76.9099 94.29 74.1299 94.29C71.3499 94.29 69.1899 93.51 67.6799 91.96C66.1599 90.41 65.3999 88.47 65.3999 86.16ZM80.5199 66.32H67.2899L65.8299 1.27002H82.0299L80.5099 66.32H80.5199Z" fill="#16284D"/>
</g>
<defs>
<clipPath id="clip0_197_572">
<rect width="82.87" height="94.29" fill="white"/>
</clipPath>
</defs>
</svg>
